<svg id="Layer_1" data-name="Layer 1" xmlns="http://www.w3.org/2000/svg" viewBox="0 0 500 500"><defs><style>.cls-1{fill:#4a90e2;}</style></defs><title>Artboard 1</title><path class="cls-1" d="M426,220.43q11.73-20,14-46A207.72,207.72,0,0,0,291.62,47.5q-5-.07-10.16-.08H202.54A207.39,207.39,0,0,0,81.4,125.07a131,131,0,0,0-11.47,53.79V330.68a127.61,127.61,0,0,0,4.87,35A207.64,207.64,0,0,0,197.41,451.4V302.66a11.2,11.2,0,0,1,11.2-11.2,53.25,53.25,0,0,1,31.1,9.52q10.09,7.29,23,31.66l31.37,58.05A128.32,128.32,0,0,0,336.56,437,208.19,208.19,0,0,0,423,359.51l-10.52-20.37q-4.47-9-17.77-25.52T374.4,292q-10.36-7.56-33-15.14,28.31-6.45,44.57-16.25A114,114,0,0,0,426,220.43Zm-112.9-45.85a74.81,74.81,0,1,1-2.2-18,47.77,47.77,0,0,1,2.2,15c0,.37,0,.74,0,1.11C313.11,173.29,313.12,173.93,313.12,174.58Zm62,9a9,9,0,1,1,9-9A9,9,0,0,1,375.14,183.61Z"/><path class="cls-1" d="M426,220.43q11.73-20,14-46A207.37,207.37,0,0,0,81.4,125.07a131,131,0,0,0-11.47,53.79V330.68a127.61,127.61,0,0,0,4.87,35A207.64,207.64,0,0,0,197.41,451.4V302.66a11.2,11.2,0,0,1,11.2-11.2,53.25,53.25,0,0,1,31.1,9.52q10.09,7.29,23,31.66l31.37,58.05A128.32,128.32,0,0,0,336.56,437,208.19,208.19,0,0,0,423,359.51l-10.52-20.37q-4.47-9-17.77-25.52T374.4,292q-10.36-7.56-33-15.14,28.31-6.45,44.57-16.25A114,114,0,0,0,426,220.43Zm-112.9-45.85a74.81,74.81,0,1,1-2.2-18,47.77,47.77,0,0,1,2.2,15c0,.37,0,.74,0,1.11C313.11,173.29,313.12,173.93,313.12,174.58Zm62,9a9,9,0,0,1-9-9.25,9.14,9.14,0,0,1,8.74-8.82,9,9,0,1,1,.3,18.07Z"/><ellipse class="cls-1" cx="238.29" cy="174.57" rx="56.77" ry="39.83" transform="translate(-51.69 118.28) rotate(-25.24)"/></svg>